<?xml version="1.0" encoding="UTF-8"?>
<svg xmlns="http://www.w3.org/2000/svg" xmlns:xlink="http://www.w3.org/1999/xlink" viewBox="0 0 96 96" width="96px" height="96px">
<g id="surface19989694">
<rect x="0" y="0" width="96" height="96" style="fill:rgb(86.666667%,86.666667%,86.666667%);fill-opacity:1;stroke:none;"/>
<path style=" stroke:none;fill-rule:nonzero;fill:rgb(100%,100%,100%);fill-opacity:1;" d="M 38.671875 8 L 36.703125 18.09375 C 33.421875 19.335938 30.382812 21.070312 27.71875 23.257812 L 18.023438 19.914062 L 8.695312 36.085938 L 16.453125 42.828125 C 16.179688 44.515625 16 46.234375 16 48 C 16 49.765625 16.179688 51.484375 16.453125 53.171875 L 8.695312 59.914062 L 18.023438 76.085938 L 27.71875 72.742188 C 30.382812 74.929688 33.421875 76.664062 36.703125 77.90625 L 38.671875 88 L 57.328125 88 L 59.296875 77.90625 C 62.578125 76.664062 65.617188 74.929688 68.28125 72.742188 L 77.976562 76.085938 L 87.304688 59.914062 L 79.546875 53.171875 C 79.820312 51.484375 80 49.765625 80 48 C 80 46.234375 79.820312 44.515625 79.546875 42.828125 L 87.304688 36.085938 L 77.976562 19.914062 L 68.28125 23.257812 C 65.617188 21.070312 62.578125 19.335938 59.296875 18.09375 L 57.328125 8 Z M 48 32 C 56.835938 32 64 39.164062 64 48 C 64 56.835938 56.835938 64 48 64 C 39.164062 64 32 56.835938 32 48 C 32 39.164062 39.164062 32 48 32 Z M 48 32 "/>
</g>
</svg>
